<mxfile host="Electron" modified="2024-05-17T10:39:01.969Z" agent="Mozilla/5.0 (Windows NT 10.0; Win64; x64) AppleWebKit/537.36 (KHTML, like Gecko) draw.io/24.2.5 Chrome/120.0.6099.109 Electron/28.1.0 Safari/537.36" etag="GDB7RjRYVVD8gVv2Beul" version="24.2.5" type="device">
  <diagram name="PÃ¡gina-1" id="Ah66-YBt44BYgdSrNy6o">
    <mxGraphModel dx="1195" dy="697" grid="1" gridSize="10" guides="1" tooltips="1" connect="1" arrows="1" fold="1" page="1" pageScale="1" pageWidth="827" pageHeight="1169" math="0" shadow="0">
      <root>
        <mxCell id="0" />
        <mxCell id="1" parent="0" />
        <mxCell id="ZqmnKEz_mI8sUPXZkjMd-2" value="&lt;font style=&quot;font-size: 14px;&quot;&gt;Counter&lt;/font&gt;" style="rounded=0;whiteSpace=wrap;html=1;" vertex="1" parent="1">
          <mxGeometry x="294" y="240" width="120" height="60" as="geometry" />
        </mxCell>
        <mxCell id="ZqmnKEz_mI8sUPXZkjMd-3" value="" style="shape=trapezoid;perimeter=trapezoidPerimeter;whiteSpace=wrap;html=1;fixedSize=1;rotation=90;" vertex="1" parent="1">
          <mxGeometry x="270" y="350" width="120" height="60" as="geometry" />
        </mxCell>
        <mxCell id="ZqmnKEz_mI8sUPXZkjMd-4" value="" style="shape=trapezoid;perimeter=trapezoidPerimeter;whiteSpace=wrap;html=1;fixedSize=1;rotation=90;" vertex="1" parent="1">
          <mxGeometry x="270" y="490" width="120" height="60" as="geometry" />
        </mxCell>
        <mxCell id="ZqmnKEz_mI8sUPXZkjMd-5" value="&lt;font style=&quot;font-size: 14px;&quot;&gt;A&lt;/font&gt;" style="text;html=1;align=center;verticalAlign=middle;whiteSpace=wrap;rounded=0;" vertex="1" parent="1">
          <mxGeometry x="300" y="334" width="20" height="30" as="geometry" />
        </mxCell>
        <mxCell id="ZqmnKEz_mI8sUPXZkjMd-6" value="&lt;font style=&quot;font-size: 14px;&quot;&gt;B&lt;/font&gt;" style="text;html=1;align=center;verticalAlign=middle;whiteSpace=wrap;rounded=0;" vertex="1" parent="1">
          <mxGeometry x="300" y="394" width="20" height="30" as="geometry" />
        </mxCell>
        <mxCell id="ZqmnKEz_mI8sUPXZkjMd-7" value="&lt;font style=&quot;font-size: 14px;&quot;&gt;A&lt;/font&gt;" style="text;html=1;align=center;verticalAlign=middle;whiteSpace=wrap;rounded=0;" vertex="1" parent="1">
          <mxGeometry x="300" y="475" width="20" height="30" as="geometry" />
        </mxCell>
        <mxCell id="ZqmnKEz_mI8sUPXZkjMd-8" value="&lt;font style=&quot;font-size: 14px;&quot;&gt;B&lt;/font&gt;" style="text;html=1;align=center;verticalAlign=middle;whiteSpace=wrap;rounded=0;" vertex="1" parent="1">
          <mxGeometry x="300" y="535" width="20" height="30" as="geometry" />
        </mxCell>
        <mxCell id="ZqmnKEz_mI8sUPXZkjMd-9" value="&lt;font style=&quot;font-size: 14px;&quot;&gt;X&lt;/font&gt;" style="ellipse;whiteSpace=wrap;html=1;aspect=fixed;" vertex="1" parent="1">
          <mxGeometry x="530" y="360" width="40" height="40" as="geometry" />
        </mxCell>
        <mxCell id="ZqmnKEz_mI8sUPXZkjMd-10" value="&lt;font style=&quot;font-size: 20px;&quot;&gt;-&lt;/font&gt;" style="ellipse;whiteSpace=wrap;html=1;aspect=fixed;" vertex="1" parent="1">
          <mxGeometry x="440" y="360" width="40" height="40" as="geometry" />
        </mxCell>
        <mxCell id="ZqmnKEz_mI8sUPXZkjMd-11" value="&lt;font style=&quot;font-size: 20px;&quot;&gt;+&lt;/font&gt;" style="ellipse;whiteSpace=wrap;html=1;aspect=fixed;" vertex="1" parent="1">
          <mxGeometry x="620" y="360" width="40" height="40" as="geometry" />
        </mxCell>
        <mxCell id="ZqmnKEz_mI8sUPXZkjMd-12" value="" style="endArrow=classic;html=1;rounded=0;entryX=0;entryY=0.5;entryDx=0;entryDy=0;exitX=0.5;exitY=0;exitDx=0;exitDy=0;" edge="1" parent="1" source="ZqmnKEz_mI8sUPXZkjMd-3" target="ZqmnKEz_mI8sUPXZkjMd-10">
          <mxGeometry width="50" height="50" relative="1" as="geometry">
            <mxPoint x="390" y="320" as="sourcePoint" />
            <mxPoint x="440" y="270" as="targetPoint" />
          </mxGeometry>
        </mxCell>
        <mxCell id="ZqmnKEz_mI8sUPXZkjMd-13" value="" style="endArrow=classic;html=1;rounded=0;entryX=0.5;entryY=1;entryDx=0;entryDy=0;exitX=0.5;exitY=0;exitDx=0;exitDy=0;" edge="1" parent="1" source="ZqmnKEz_mI8sUPXZkjMd-4" target="ZqmnKEz_mI8sUPXZkjMd-10">
          <mxGeometry width="50" height="50" relative="1" as="geometry">
            <mxPoint x="390" y="320" as="sourcePoint" />
            <mxPoint x="440" y="270" as="targetPoint" />
            <Array as="points">
              <mxPoint x="460" y="520" />
            </Array>
          </mxGeometry>
        </mxCell>
        <mxCell id="ZqmnKEz_mI8sUPXZkjMd-14" value="" style="endArrow=classic;html=1;rounded=0;entryX=0;entryY=0.5;entryDx=0;entryDy=0;exitX=1;exitY=0.5;exitDx=0;exitDy=0;" edge="1" parent="1" source="ZqmnKEz_mI8sUPXZkjMd-10" target="ZqmnKEz_mI8sUPXZkjMd-9">
          <mxGeometry width="50" height="50" relative="1" as="geometry">
            <mxPoint x="390" y="320" as="sourcePoint" />
            <mxPoint x="440" y="270" as="targetPoint" />
          </mxGeometry>
        </mxCell>
        <mxCell id="ZqmnKEz_mI8sUPXZkjMd-15" value="" style="endArrow=classic;html=1;rounded=0;entryX=0;entryY=0.5;entryDx=0;entryDy=0;exitX=1;exitY=0.5;exitDx=0;exitDy=0;" edge="1" parent="1">
          <mxGeometry width="50" height="50" relative="1" as="geometry">
            <mxPoint x="570" y="379.58" as="sourcePoint" />
            <mxPoint x="620" y="379.58" as="targetPoint" />
          </mxGeometry>
        </mxCell>
        <mxCell id="ZqmnKEz_mI8sUPXZkjMd-16" value="" style="endArrow=classic;html=1;rounded=0;entryX=0.5;entryY=0;entryDx=0;entryDy=0;exitX=1;exitY=0.5;exitDx=0;exitDy=0;" edge="1" parent="1" source="ZqmnKEz_mI8sUPXZkjMd-2" target="ZqmnKEz_mI8sUPXZkjMd-9">
          <mxGeometry width="50" height="50" relative="1" as="geometry">
            <mxPoint x="390" y="320" as="sourcePoint" />
            <mxPoint x="440" y="270" as="targetPoint" />
            <Array as="points">
              <mxPoint x="550" y="270" />
            </Array>
          </mxGeometry>
        </mxCell>
        <mxCell id="ZqmnKEz_mI8sUPXZkjMd-17" value="" style="endArrow=classic;html=1;rounded=0;entryX=0.5;entryY=1;entryDx=0;entryDy=0;" edge="1" parent="1" target="ZqmnKEz_mI8sUPXZkjMd-11">
          <mxGeometry width="50" height="50" relative="1" as="geometry">
            <mxPoint x="460" y="520" as="sourcePoint" />
            <mxPoint x="640" y="440" as="targetPoint" />
            <Array as="points">
              <mxPoint x="640" y="520" />
            </Array>
          </mxGeometry>
        </mxCell>
        <mxCell id="ZqmnKEz_mI8sUPXZkjMd-18" value="" style="endArrow=classic;html=1;rounded=0;entryX=0;entryY=0.5;entryDx=0;entryDy=0;" edge="1" parent="1" target="ZqmnKEz_mI8sUPXZkjMd-5">
          <mxGeometry width="50" height="50" relative="1" as="geometry">
            <mxPoint x="240" y="349" as="sourcePoint" />
            <mxPoint x="210" y="334" as="targetPoint" />
          </mxGeometry>
        </mxCell>
        <mxCell id="ZqmnKEz_mI8sUPXZkjMd-19" value="&lt;font style=&quot;font-size: 14px;&quot;&gt;HDR&lt;/font&gt;" style="text;html=1;align=center;verticalAlign=middle;whiteSpace=wrap;rounded=0;" vertex="1" parent="1">
          <mxGeometry x="185" y="334" width="50" height="30" as="geometry" />
        </mxCell>
        <mxCell id="ZqmnKEz_mI8sUPXZkjMd-20" value="" style="endArrow=classic;html=1;rounded=0;entryX=0;entryY=0.5;entryDx=0;entryDy=0;" edge="1" parent="1">
          <mxGeometry width="50" height="50" relative="1" as="geometry">
            <mxPoint x="240" y="550" as="sourcePoint" />
            <mxPoint x="300" y="550" as="targetPoint" />
          </mxGeometry>
        </mxCell>
        <mxCell id="ZqmnKEz_mI8sUPXZkjMd-21" value="&lt;font style=&quot;font-size: 14px;&quot;&gt;HDR&lt;/font&gt;" style="text;html=1;align=center;verticalAlign=middle;whiteSpace=wrap;rounded=0;" vertex="1" parent="1">
          <mxGeometry x="185" y="535" width="50" height="30" as="geometry" />
        </mxCell>
        <mxCell id="ZqmnKEz_mI8sUPXZkjMd-22" value="" style="endArrow=classic;html=1;rounded=0;entryX=0;entryY=0.5;entryDx=0;entryDy=0;" edge="1" parent="1">
          <mxGeometry width="50" height="50" relative="1" as="geometry">
            <mxPoint x="240" y="409" as="sourcePoint" />
            <mxPoint x="300" y="409" as="targetPoint" />
          </mxGeometry>
        </mxCell>
        <mxCell id="ZqmnKEz_mI8sUPXZkjMd-23" value="&lt;font style=&quot;font-size: 14px;&quot;&gt;HSNR&lt;/font&gt;" style="text;html=1;align=center;verticalAlign=middle;whiteSpace=wrap;rounded=0;" vertex="1" parent="1">
          <mxGeometry x="180" y="394" width="60" height="30" as="geometry" />
        </mxCell>
        <mxCell id="ZqmnKEz_mI8sUPXZkjMd-24" value="" style="endArrow=classic;html=1;rounded=0;entryX=0;entryY=0.5;entryDx=0;entryDy=0;" edge="1" parent="1">
          <mxGeometry width="50" height="50" relative="1" as="geometry">
            <mxPoint x="240" y="490" as="sourcePoint" />
            <mxPoint x="300" y="490" as="targetPoint" />
          </mxGeometry>
        </mxCell>
        <mxCell id="ZqmnKEz_mI8sUPXZkjMd-25" value="&lt;font style=&quot;font-size: 14px;&quot;&gt;HSNR&lt;/font&gt;" style="text;html=1;align=center;verticalAlign=middle;whiteSpace=wrap;rounded=0;" vertex="1" parent="1">
          <mxGeometry x="180" y="475" width="60" height="30" as="geometry" />
        </mxCell>
        <mxCell id="ZqmnKEz_mI8sUPXZkjMd-26" value="" style="endArrow=classic;startArrow=classic;html=1;rounded=0;entryX=1;entryY=0.5;entryDx=0;entryDy=0;" edge="1" parent="1" target="ZqmnKEz_mI8sUPXZkjMd-3">
          <mxGeometry width="50" height="50" relative="1" as="geometry">
            <mxPoint x="330" y="470" as="sourcePoint" />
            <mxPoint x="379" y="424" as="targetPoint" />
          </mxGeometry>
        </mxCell>
        <mxCell id="ZqmnKEz_mI8sUPXZkjMd-27" value="" style="endArrow=none;html=1;rounded=0;" edge="1" parent="1">
          <mxGeometry width="50" height="50" relative="1" as="geometry">
            <mxPoint x="240" y="450" as="sourcePoint" />
            <mxPoint x="330" y="450" as="targetPoint" />
          </mxGeometry>
        </mxCell>
        <mxCell id="ZqmnKEz_mI8sUPXZkjMd-28" value="&lt;font style=&quot;font-size: 14px;&quot;&gt;SEL&lt;/font&gt;" style="text;html=1;align=center;verticalAlign=middle;whiteSpace=wrap;rounded=0;" vertex="1" parent="1">
          <mxGeometry x="199" y="436" width="40" height="30" as="geometry" />
        </mxCell>
        <mxCell id="ZqmnKEz_mI8sUPXZkjMd-29" value="" style="endArrow=classic;html=1;rounded=0;" edge="1" parent="1">
          <mxGeometry width="50" height="50" relative="1" as="geometry">
            <mxPoint x="660" y="379.58" as="sourcePoint" />
            <mxPoint x="710" y="379.58" as="targetPoint" />
          </mxGeometry>
        </mxCell>
        <mxCell id="ZqmnKEz_mI8sUPXZkjMd-30" value="&lt;font style=&quot;font-size: 14px;&quot;&gt;Z&lt;/font&gt;" style="text;html=1;align=center;verticalAlign=middle;whiteSpace=wrap;rounded=0;" vertex="1" parent="1">
          <mxGeometry x="720" y="365" width="20" height="30" as="geometry" />
        </mxCell>
      </root>
    </mxGraphModel>
  </diagram>
</mxfile>
